<svg xmlns="http://www.w3.org/2000/svg" viewBox="0 0 512 512">
  <!-- Background gradient -->
  <defs>
    <linearGradient id="bgGradient" x1="0%" y1="0%" x2="100%" y2="100%">
      <stop offset="0%" style="stop-color:#0ea5e9;stop-opacity:1" />
      <stop offset="100%" style="stop-color:#0284c7;stop-opacity:1" />
    </linearGradient>
  </defs>
  
  <!-- Background -->
  <rect width="512" height="512" rx="120" fill="url(#bgGradient)"/>
  
  <!-- Chat bubble -->
  <path d="M256 120c-88.4 0-160 61.6-160 137.6 0 43.2 22.8 81.6 58.4 107.2-4.8 28.8-26.4 56.8-26.4 56.8s34.4-4.8 64.8-20.8c20 5.6 41.6 8.8 63.2 8.8 88.4 0 160-61.6 160-137.6S344.4 120 256 120z" fill="white"/>
  
  <!-- Message lines -->
  <rect x="160" y="200" width="192" height="24" rx="12" fill="#0ea5e9"/>
  <rect x="160" y="240" width="160" height="24" rx="12" fill="#0ea5e9" opacity="0.7"/>
  <rect x="160" y="280" width="128" height="24" rx="12" fill="#0ea5e9" opacity="0.5"/>
  
  <!-- GB Badge -->
  <circle cx="380" cy="160" r="50" fill="#0ea5e9"/>
  <text x="380" y="180" text-anchor="middle" fill="white" font-size="40" font-weight="bold" font-family="Arial, sans-serif">GB</text>
</svg>
