<svg width="64" height="64" viewBox="0 0 64 64" fill="none" xmlns="http://www.w3.org/2000/svg">
  <rect width="64" height="64" rx="12" fill="#0EA5E9"/>
  <path d="M32 16C22.0589 16 14 23.1634 14 32C14 35.4118 15.1765 38.5882 17.1765 41.1765L15.4118 48.5882L23.4118 46.8235C25.8824 48.4706 28.8235 49.4118 32 49.4118C41.9412 49.4118 50 42.2482 50 33.4118C50 24.5753 41.9412 16 32 16Z" fill="white"/>
  <path d="M38.5 28.5C38.5 29.3284 37.8284 30 37 30C36.1716 30 35.5 29.3284 35.5 28.5C35.5 27.6716 36.1716 27 37 27C37.8284 27 38.5 27.6716 38.5 28.5Z" fill="#0EA5E9"/>
  <path d="M28.5 28.5C28.5 29.3284 27.8284 30 27 30C26.1716 30 25.5 29.3284 25.5 28.5C25.5 27.6716 26.1716 27 27 27C27.8284 27 28.5 27.6716 28.5 28.5Z" fill="#0EA5E9"/>
  <path d="M25 35C25 35 27 38 32 38C37 38 39 35 39 35" stroke="#0EA5E9" stroke-width="2" stroke-linecap="round"/>
</svg>